/* XPM */
static char * alpha_xpm[] = {
"12 12 3 1",
" 	c None",
".	c #81A2BE",
"+	c #000000",
"......++++++",
".+++++++...+",
".+++++++...+",
".+++++++...+",
".+++++++++++",
".++++..+++++",
"+++++..++++.",
"+++++++++++.",
"+...+++++++.",
"+...+++++++.",
"+...+++++++.",
"++++++......"};
