#define alpha_width 12
#define alpha_height 12
static unsigned char alpha_bits[] = {
   0x3f, 0x00, 0x01, 0x07, 0x01, 0x07, 0x01, 0x07, 0x01, 0x00, 0x61, 0x00,
   0x60, 0x08, 0x00, 0x08, 0x0e, 0x08, 0x0e, 0x08, 0x0e, 0x08, 0xc0, 0x0f };
