#define beta_width 12
#define beta_height 12
static unsigned char beta_bits[] = {
   0x00, 0x06, 0x00, 0x0f, 0x00, 0x0f, 0x38, 0x06, 0x44, 0x00, 0x82, 0x00,
   0x39, 0x01, 0x39, 0x01, 0x39, 0x01, 0x82, 0x00, 0x44, 0x00, 0x38, 0x00 };
