#define circle_width 14
#define circle_height 14
static unsigned char circle_bits[] = {
   0x00, 0x00, 0x00, 0x00, 0xe0, 0x01, 0xf0, 0x03, 0xf8, 0x07, 0xfc, 0x0f,
   0xfc, 0x0f, 0xfc, 0x0f, 0xfc, 0x0f, 0xf8, 0x07, 0xf0, 0x03, 0xe0, 0x01,
   0x00, 0x00, 0x00, 0x00 };
