#define clock_width 12
#define clock_height 12
static unsigned char clock_bits[] = {
   0x00, 0x00, 0xf0, 0x00, 0xf8, 0x01, 0xfc, 0x02, 0x7e, 0x07, 0xbe, 0x07,
   0xc0, 0x07, 0xfe, 0x07, 0xfc, 0x03, 0xf8, 0x01, 0xf0, 0x00, 0x00, 0x00 };
