#define column_width 14
#define column_height 14
static unsigned char column_bits[] = {
   0x11, 0x22, 0x11, 0x22, 0x11, 0x22, 0x11, 0x22, 0x11, 0x22, 0x11, 0x22,
   0x11, 0x22, 0x11, 0x22, 0x11, 0x22, 0x11, 0x22, 0x11, 0x22, 0x11, 0x22,
   0x11, 0x22, 0x11, 0x22 };
