#define cpu_width 12
#define cpu_height 12
static unsigned char cpu_bits[] = {
   0x00, 0x00, 0x66, 0x06, 0x02, 0x04, 0x00, 0x00, 0xf0, 0x00, 0xf2, 0x04,
   0xf2, 0x04, 0xf0, 0x00, 0x00, 0x00, 0x02, 0x04, 0x66, 0x06, 0x00, 0x00 };
