#define delta_width 12
#define delta_height 12
static unsigned char delta_bits[] = {
   0xf0, 0x00, 0x08, 0x01, 0x04, 0x02, 0x02, 0x04, 0xc1, 0x09, 0xc1, 0x09,
   0xc1, 0x09, 0x0d, 0x08, 0x12, 0x04, 0x12, 0x02, 0x0c, 0x01, 0xf0, 0x00 };
