#define down_width 12
#define down_height 12
static unsigned char down_bits[] = {
   0x00, 0x00, 0x70, 0x00, 0x70, 0x00, 0x70, 0x00, 0x70, 0x00, 0x70, 0x00,
   0x70, 0x00, 0xfe, 0x03, 0xfc, 0x01, 0xf8, 0x00, 0x70, 0x00, 0x20, 0x00 };
