#define epsilon_width 12
#define epsilon_height 12
static unsigned char epsilon_bits[] = {
   0xe0, 0x0f, 0x10, 0x08, 0x10, 0x08, 0x10, 0x08, 0xf0, 0x08, 0xf0, 0x08,
   0xf3, 0x08, 0xf7, 0x07, 0x07, 0x00, 0x07, 0x00, 0xff, 0x0f, 0xfe, 0x07 };
