#define eta_width 12
#define eta_height 12
static unsigned char eta_bits[] = {
   0x02, 0x04, 0x01, 0x08, 0xf0, 0x00, 0x08, 0x01, 0x04, 0x02, 0x64, 0x02,
   0x64, 0x02, 0x04, 0x02, 0x08, 0x01, 0xf0, 0x00, 0x01, 0x08, 0x02, 0x04 };
