/* XPM */
static char * gamma_xpm[] = {
"12 12 3 1",
" 	c None",
".	c #A54242",
"+	c #000000",
"...++++++...",
"..++++++++..",
".+.++++++.+.",
"+++.++++.+++",
"++++.++.++++",
"+++++..+++++",
"+++++..+++++",
"++++.++.++++",
"+++.++++.+++",
".+.++++++.+.",
"..++++++++..",
"...++++++..."};
