#define gamma_width 12
#define gamma_height 12
static unsigned char gamma_bits[] = {
   0x07, 0x0e, 0x03, 0x0c, 0x05, 0x0a, 0x08, 0x01, 0x90, 0x00, 0x60, 0x00,
   0x60, 0x00, 0x90, 0x00, 0x08, 0x01, 0x05, 0x0a, 0x03, 0x0c, 0x07, 0x0e };
