#define grid3x3_width 12
#define grid3x3_height 12
static unsigned char grid3x3_bits[] = {
   0x00, 0x00, 0xee, 0x0e, 0xee, 0x0e, 0xee, 0x0e, 0x00, 0x00, 0xee, 0x0e,
   0xee, 0x0e, 0xee, 0x0e, 0x00, 0x00, 0xee, 0x0e, 0xee, 0x0e, 0xee, 0x0e };
