#define layers_width 12
#define layers_height 12
static unsigned char layers_bits[] = {
   0xe0, 0x00, 0xf8, 0x03, 0xfe, 0x0f, 0xfe, 0x0f, 0xf8, 0x03, 0x60, 0x00,
   0x0f, 0x0e, 0x9c, 0x07, 0xf0, 0x00, 0x03, 0x0c, 0x1e, 0x07, 0xf0, 0x01 };
