#define layout_width 12
#define layout_height 12
static unsigned char layout_bits[] = {
   0x1f, 0x0f, 0x1f, 0x0f, 0x1f, 0x0f, 0x1f, 0x0f, 0x1f, 0x0f, 0x1f, 0x00,
   0x1f, 0x00, 0x1f, 0x0f, 0x1f, 0x0f, 0x1f, 0x0f, 0x1f, 0x0f, 0x1f, 0x0f };
