#define mail_width 12
#define mail_height 12
static unsigned char mail_bits[] = {
   0x00, 0x00, 0x00, 0x00, 0xfe, 0x07, 0xfc, 0x03, 0xfa, 0x05, 0xf6, 0x06,
   0x0e, 0x07, 0xfe, 0x07, 0xfe, 0x07, 0xfe, 0x07, 0x00, 0x00, 0x00, 0x00 };
