#define mail_width 14
#define mail_height 14
static unsigned char mail_bits[] = {
   0x00, 0x00, 0x00, 0x00, 0xff, 0x3f, 0xff, 0x3f, 0x0b, 0x34, 0x13, 0x32,
   0x23, 0x31, 0xc3, 0x30, 0x03, 0x30, 0x03, 0x30, 0x03, 0x30, 0xff, 0x3f,
   0x00, 0x00, 0x00, 0x00 };
