#define monitor_width 12
#define monitor_height 12
static unsigned char monitor_bits[] = {
   0xff, 0x0f, 0x01, 0x08, 0x01, 0x08, 0x01, 0x08, 0x01, 0x08, 0x01, 0x08,
   0x01, 0x08, 0x01, 0x08, 0xff, 0x0f, 0xf0, 0x00, 0xf0, 0x00, 0xfc, 0x03 };
