#define music_width 12
#define music_height 12
static unsigned char music_bits[] = {
   0x00, 0x00, 0xf8, 0x07, 0xf8, 0x07, 0x08, 0x04, 0x08, 0x04, 0x08, 0x04,
   0x08, 0x04, 0x08, 0x04, 0x0e, 0x07, 0x0e, 0x07, 0x0e, 0x07, 0x00, 0x00 };
