#define pacman_width 12
#define pacman_height 12
static unsigned char pacman_bits[] = {
   0x00, 0x00, 0xf8, 0x01, 0xbc, 0x03, 0x9e, 0x07, 0xfe, 0x03, 0xfe, 0x00,
   0x1e, 0x00, 0x1e, 0x00, 0xfe, 0x03, 0xfc, 0x07, 0xf8, 0x01, 0x00, 0x00 };
