#define shell_width 14
#define shell_height 14
static unsigned char shell_bits[] = {
   0x00, 0x00, 0xff, 0x3f, 0xff, 0x3f, 0x55, 0x35, 0x01, 0x20, 0x09, 0x20,
   0x11, 0x20, 0x21, 0x20, 0x41, 0x20, 0x21, 0x20, 0x11, 0x20, 0x89, 0x2a,
   0x01, 0x20, 0xff, 0x3f };
