#define spiral_width 12
#define spiral_height 12
static unsigned char spiral_bits[] = {
   0xef, 0x0f, 0xef, 0x0f, 0xef, 0x0f, 0xef, 0x0f, 0xef, 0x0f, 0x0f, 0x00,
   0xef, 0x0e, 0xef, 0x0e, 0x0f, 0x0e, 0xef, 0x0e, 0xef, 0x0e, 0xef, 0x0e };
