#define spiral_width 14
#define spiral_height 14
static unsigned char spiral_bits[] = {
   0xfe, 0x1f, 0x01, 0x20, 0xf9, 0x27, 0x05, 0x28, 0xe5, 0x29, 0x15, 0x2a,
   0xd5, 0x2a, 0xd5, 0x2a, 0x65, 0x2a, 0x05, 0x2a, 0xf9, 0x29, 0x01, 0x28,
   0xfe, 0x27, 0x00, 0x20 };
