/* XPM */
static char * stigma_xpm[] = {
"12 12 3 1",
" 	c None",
".	c #000000",
"+	c #5E8D87",
"....++++....",
"..+++..+++..",
".++......++.",
".+..........",
"++...++.....",
"+...++++....",
"+...++++....",
"+....+++....",
".+......+.+.",
".+.......++.",
"..+.....+++.",
"............"};
