#define stigma_width 12
#define stigma_height 12
static unsigned char stigma_bits[] = {
   0xf0, 0x00, 0x9c, 0x03, 0x06, 0x06, 0x02, 0x00, 0x63, 0x00, 0xf1, 0x00,
   0xf1, 0x00, 0xe1, 0x00, 0x02, 0x05, 0x02, 0x06, 0x04, 0x07, 0x00, 0x00 };
