#define temp_width 12
#define temp_height 12
static unsigned char temp_bits[] = {
   0x00, 0x00, 0x00, 0x06, 0x20, 0x07, 0x80, 0x02, 0x48, 0x01, 0xa0, 0x00,
   0x5c, 0x00, 0x22, 0x00, 0x22, 0x00, 0x22, 0x00, 0x1c, 0x00, 0x00, 0x00 };
