/* XPM */
static char * theta_xpm[] = {
"12 12 3 1",
" 	c None",
".	c #000000",
"+	c #85678F",
"...++++++++.",
"..++++++++++",
".++......+++",
"..........++",
"..........++",
"..++++....++",
".++..++...++",
"+++++.+...++",
"+.+.+.+...++",
"+.+++++..++.",
"++..++...+..",
".++++......."};
