#define theta_width 12
#define theta_height 12
static unsigned char theta_bits[] = {
   0xf8, 0x07, 0xfc, 0x0f, 0x06, 0x0e, 0x00, 0x0c, 0x00, 0x0c, 0x3c, 0x0c,
   0x66, 0x0c, 0x5f, 0x0c, 0x55, 0x0c, 0x7d, 0x06, 0x33, 0x02, 0x1e, 0x00 };
