#define up_width 12
#define up_height 12
static unsigned char up_bits[] = {
   0x00, 0x00, 0x20, 0x00, 0x70, 0x00, 0xf8, 0x00, 0xfc, 0x01, 0xfe, 0x03,
   0x70, 0x00, 0x70, 0x00, 0x70, 0x00, 0x70, 0x00, 0x70, 0x00, 0x70, 0x00 };
