#define zeta_width 12
#define zeta_height 12
static unsigned char zeta_bits[] = {
   0x0f, 0x0f, 0x0f, 0x09, 0x0f, 0x09, 0x08, 0x01, 0x08, 0x01, 0xb0, 0x00,
   0xd0, 0x00, 0x08, 0x01, 0x08, 0x01, 0x09, 0x0f, 0x09, 0x0f, 0x0f, 0x0f };
