/* XPM */
static char * zeta_xpm[] = {
"12 12 3 1",
" 	c None",
".	c #B294BB",
"+	c #000000",
"....++++....",
"....++++.++.",
"....++++.++.",
"+++.++++.+++",
"+++.++++.+++",
"++++..+.++++",
"++++.+..++++",
"+++.++++.+++",
"+++.++++.+++",
".++.++++....",
".++.++++....",
"....++++...."};
